<svg width="555px" height="128.8px" xmlns="http://www.w3.org/2000/svg" viewBox="-27.49248046874999 10.599996948242193 554.9849609375 128.8000061035156" style="background: rgba(0, 0, 0, 0)" preserveAspectRatio="xMidYMid"><defs><linearGradient id="editing-sticker-gradient" x1="0.5" y1="0.2" x2="0.5" y2="0.8"><stop offset="0" stop-color="#ffdd99"></stop><stop offset="1" stop-color="#99ddff"></stop></linearGradient><filter id="editing-sticker" x="-100%" y="-100%" width="300%" height="300%"><feMorphology operator="erode" radius="1" in="SourceAlpha" result="alpha-erode"></feMorphology><feConvolveMatrix order="3,3" divisor="1" kernelMatrix="0 1 0 1 1 1 0 1 0" in="alpha-erode" result="alpha-round"></feConvolveMatrix><feMorphology operator="dilate" radius="3.5" in="alpha-round" result="dilate-shadow"></feMorphology><feGaussianBlur in="dilate-shadow" stdDeviation="1.5" result="shadow"></feGaussianBlur><feFlood flood-color="#fff" result="flood-sticker"></feFlood><feComposite operator="in" in="flood-sticker" in2="alpha-round" result="comp-sticker"></feComposite><feMorphology operator="dilate" radius="3" in="comp-sticker" result="morph-sticker"></feMorphology><feConvolveMatrix order="3,3" divisor="1" kernelMatrix="0 1 0 1 1 1 0 1 0" in="morph-sticker" result="sticker"></feConvolveMatrix><feMerge><feMergeNode in="shadow"></feMergeNode><feMergeNode in="sticker"></feMergeNode><feMergeNode in="SourceGraphic"></feMergeNode></feMerge></filter></defs><g filter="url(#editing-sticker)"><g transform="matrix(1.3,0,0,1.6,17.5,207)"><path d="M -22 -67.3 L -22 -67.3 L -22 -67.3 Q -16.6 -71.3 -11.1 -87.7 L -11.1 -87.7 L -11.1 -87.7 Q -7.9 -97.3 -6.6 -105 L -6.6 -105 L -6.6 -105 Q -6.3 -107.2 -6.3 -108.4 L -6.3 -108.4 L -6.3 -108.4 Q -7.6 -108.3 -8.7 -107.7 L -8.7 -107.7 L -11 -106.3 L -11 -106.3 Q -12 -105.8 -13.6 -107.2 L -13.6 -107.2 L -13.6 -107.2 Q -15.2 -108.5 -15.1 -109.5 L -15.1 -109.5 L -15.1 -109.5 Q -14.9 -110.4 -14 -111.1 L -14 -111.1 L -14 -111.1 Q -13.1 -111.7 -11.9 -112.1 L -11.9 -112.1 L -11.9 -112.1 Q -9.3 -113 -7.6 -113 L -7.6 -113 L -7.6 -113 Q -5.8 -113 -4.5 -112.7 L -4.5 -112.7 L -4.5 -112.7 Q -3.2 -112.5 -2.1 -111.9 L -2.1 -111.9 L -2.1 -111.9 Q 0.4 -110.4 0.5 -107.7 L 0.5 -107.7 L 0.5 -107.7 Q 0.6 -103.1 -2.7 -91.9 L -2.7 -91.9 L -2.7 -91.9 Q -7.9 -74.3 -14.9 -67.1 L -14.9 -67.1 L -14.9 -67.1 Q -16.8 -65.1 -18.8 -64.4 L -18.8 -64.4 L -18.8 -64.4 Q -19.4 -64.2 -20 -64.2 L -20 -64.2 L -20 -64.2 Q -20.5 -64.2 -21 -64.4 L -21 -64.4 L -21 -64.4 Q -21.5 -64.6 -21.8 -64.9 L -21.8 -64.9 L -21.8 -64.9 Q -22.5 -65.5 -22.5 -66.2 L -22.5 -66.2 L -22.5 -66.2 Q -22.5 -66.9 -22 -67.3 Z M 25 -90.9 L 25 -90.9 L 25 -90.9 Q 23.2 -90.9 18.4 -85.6 L 18.4 -85.6 L 18.4 -85.6 Q 14.8 -81.5 13.2 -79.4 L 13.2 -79.4 L 10.4 -75.9 L 10.4 -75.9 Q 8.6 -72.4 7.5 -70.2 L 7.5 -70.2 L 5.9 -66.5 L 5.9 -66.5 Q 5.2 -65.2 4.7 -64.6 L 4.7 -64.6 L 4.7 -64.6 Q 4.2 -64.1 3.4 -64.1 L 3.4 -64.1 L 3.4 -64.1 Q 2.6 -64.1 1.8 -64.4 L 1.8 -64.4 L 1.8 -64.4 Q 1 -64.7 0.5 -65.2 L 0.5 -65.2 L 0.5 -65.2 Q -0.7 -66.2 -0.7 -67.4 L -0.7 -67.4 L -0.7 -67.4 Q -0.7 -67.8 0 -69.2 L 0 -69.2 L 1.2 -71.7 L 1.2 -71.7 Q 1.7 -72.9 2.5 -74.6 L 2.5 -74.6 L 4.2 -78.9 L 4.2 -78.9 Q 7.9 -88.1 7.9 -90.8 L 7.9 -90.8 L 7.9 -90.8 Q 7.9 -92.2 7 -92.9 L 7 -92.9 L 6.4 -93.4 L 6.4 -93.4 Q 6 -93.6 6 -94.1 L 6 -94.1 L 6 -94.1 Q 6 -94.7 6.5 -95.2 L 6.5 -95.2 L 6.5 -95.2 Q 6.9 -95.7 7.6 -96 L 7.6 -96 L 7.6 -96 Q 9 -96.8 10.4 -96.8 L 10.4 -96.8 L 10.4 -96.8 Q 11.8 -96.8 12.6 -96.4 L 12.6 -96.4 L 12.6 -96.4 Q 13.5 -96.1 14 -95.6 L 14 -95.6 L 14 -95.6 Q 15.2 -94.5 15.2 -93.3 L 15.2 -93.3 L 15.2 -93.3 Q 15.2 -92.1 14.9 -90.9 L 14.9 -90.9 L 14.9 -90.9 Q 14.6 -89.7 14.1 -88.5 L 14.1 -88.5 L 14.1 -88.5 Q 13.7 -87.3 13.1 -86.1 L 13.1 -86.1 L 13.1 -86.1 Q 11.9 -83.4 11.6 -82.8 L 11.6 -82.8 L 11.6 -82.8 Q 11.3 -82.2 11.4 -82.4 L 11.4 -82.4 L 11.4 -82.4 Q 17.1 -89.8 18.3 -91.1 L 18.3 -91.1 L 18.3 -91.1 Q 20.7 -93.9 22 -94.9 L 22 -94.9 L 22 -94.9 Q 24.5 -96.8 26.7 -96.8 L 26.7 -96.8 L 26.7 -96.8 Q 28.9 -96.8 30.2 -95.4 L 30.2 -95.4 L 30.2 -95.4 Q 31.5 -94 31.5 -91.8 L 31.5 -91.8 L 31.5 -91.8 Q 31.5 -89.8 30.5 -87.1 L 30.5 -87.1 L 30.5 -87.1 Q 29.5 -84.5 29.2 -83.4 L 29.2 -83.4 L 33.8 -89.5 L 36.4 -92.5 L 36.4 -92.5 Q 38.7 -95.1 40.4 -95.9 L 40.4 -95.9 L 40.4 -95.9 Q 42.2 -96.8 43.3 -96.8 L 43.3 -96.8 L 43.3 -96.8 Q 44.4 -96.8 45.5 -96.4 L 45.5 -96.4 L 45.5 -96.4 Q 46.5 -95.9 47.3 -95.2 L 47.3 -95.2 L 47.3 -95.2 Q 48.9 -93.7 48.9 -91.1 L 48.9 -91.1 L 48.9 -91.1 Q 48.9 -88.7 47.8 -86.1 L 47.8 -86.1 L 47.8 -86.1 Q 46.6 -83.6 45.8 -81.9 L 45.8 -81.9 L 45.8 -81.9 Q 45 -80.3 44.2 -78.6 L 44.2 -78.6 L 44.2 -78.6 Q 41.9 -73.7 41.9 -71.3 L 41.9 -71.3 L 41.9 -71.3 Q 41.9 -69.6 43.3 -69.6 L 43.3 -69.6 L 43.3 -69.6 Q 44.6 -69.6 45.7 -70.1 L 45.7 -70.1 L 45.7 -70.1 Q 46.7 -70.7 47 -70.7 L 47 -70.7 L 47 -70.7 Q 47.7 -70.7 47.7 -70 L 47.7 -70 L 47.7 -70 Q 47.7 -67.3 44.9 -65.4 L 44.9 -65.4 L 44.9 -65.4 Q 43 -64.1 41.4 -64.1 L 41.4 -64.1 L 41.4 -64.1 Q 39.8 -64.1 38.8 -64.5 L 38.8 -64.5 L 38.8 -64.5 Q 37.9 -64.9 37.1 -65.7 L 37.1 -65.7 L 37.1 -65.7 Q 35.3 -67.5 35.3 -70.2 L 35.3 -70.2 L 35.3 -70.2 Q 35.3 -72.9 36 -75.2 L 36 -75.2 L 36 -75.2 Q 36.7 -77.5 37.6 -79.6 L 37.6 -79.6 L 37.6 -79.6 Q 38.6 -81.8 39.5 -83.6 L 39.5 -83.6 L 39.5 -83.6 Q 40.5 -85.4 41 -86.4 L 41 -86.4 L 41 -86.4 Q 42 -88.6 42 -89.6 L 42 -89.6 L 42 -89.6 Q 42 -90.9 40.7 -90.9 L 40.7 -90.9 L 40.7 -90.9 Q 39 -90.9 34.6 -85.3 L 34.6 -85.3 L 34.6 -85.3 Q 31.3 -80.9 30 -79 L 30 -79 L 27.9 -75.9 L 27.9 -75.9 Q 26.1 -72.4 25.1 -70.2 L 25.1 -70.2 L 23.5 -66.5 L 23.5 -66.5 Q 22.9 -65.2 22.5 -64.6 L 22.5 -64.6 L 22.5 -64.6 Q 22 -64.1 21.3 -64.1 L 21.3 -64.1 L 21.3 -64.1 Q 20.5 -64.1 19.7 -64.4 L 19.7 -64.4 L 19.7 -64.4 Q 19 -64.6 18.5 -65 L 18.5 -65 L 18.5 -65 Q 17.3 -65.9 17.3 -66.9 L 17.3 -66.9 L 17.3 -66.9 Q 17.3 -67.9 17.9 -69.7 L 17.9 -69.7 L 17.9 -69.7 Q 18.6 -71.5 19.6 -73.7 L 19.6 -73.7 L 24 -82.9 L 24 -82.9 Q 26.3 -88.1 26.3 -89.5 L 26.3 -89.5 L 26.3 -89.5 Q 26.3 -90.9 25 -90.9 Z M 28.1 -82 L 28.1 -82 L 28.1 -82 Q 28.2 -82 28.2 -82.1 L 28.2 -82.1 L 28.2 -82.1 L 28.2 -82.1 Q 28.1 -82.1 28.1 -82 Z M 77.6 -72.7 L 77.6 -72.7 L 77.6 -72.7 Q 77.6 -69.9 79.6 -69.9 L 79.6 -69.9 L 79.6 -69.9 Q 81 -69.9 81.9 -70.3 L 81.9 -70.3 L 81.9 -70.3 Q 82.9 -70.7 83.2 -70.7 L 83.2 -70.7 L 83.2 -70.7 Q 83.8 -70.7 83.8 -70 L 83.8 -70 L 83.8 -70 Q 83.8 -67.4 81 -65.4 L 81 -65.4 L 81 -65.4 Q 78 -63.4 75 -64.4 L 75 -64.4 L 75 -64.4 Q 72.9 -65.1 72 -67.5 L 72 -67.5 L 72 -67.5 Q 71.5 -68.7 71.5 -69.7 L 71.5 -69.7 L 71.5 -69.7 Q 71.5 -71.4 71.8 -73.2 L 71.8 -73.2 L 71.8 -73.2 Q 68.9 -67.2 64.6 -65 L 64.6 -65 L 64.6 -65 Q 62.9 -64.1 60.9 -64.1 L 60.9 -64.1 L 60.9 -64.1 Q 59 -64.1 57.6 -64.9 L 57.6 -64.9 L 57.6 -64.9 Q 56.1 -65.7 55.1 -67.1 L 55.1 -67.1 L 55.1 -67.1 Q 53.1 -70 53.3 -74.5 L 53.3 -74.5 L 53.3 -74.5 Q 53.5 -80 56.6 -85.4 L 56.6 -85.4 L 56.6 -85.4 Q 59.4 -90.4 63.8 -93.5 L 63.8 -93.5 L 63.8 -93.5 Q 68.1 -96.8 71.9 -96.8 L 71.9 -96.8 L 71.9 -96.8 Q 75.7 -96.8 78 -93.3 L 78 -93.3 L 78 -93.3 Q 80.1 -96.8 81.8 -96.8 L 81.8 -96.8 L 81.8 -96.8 Q 83.6 -96.8 84.5 -96.1 L 84.5 -96.1 L 84.5 -96.1 Q 86.2 -94.9 85.7 -93.9 L 85.7 -93.9 L 85.7 -93.9 Q 77.9 -77.9 77.6 -73.9 L 77.6 -73.9 L 77.6 -73.9 Q 77.6 -73.4 77.6 -72.7 Z M 60.2 -72.6 L 60.2 -72.6 L 60.2 -72.6 Q 60.2 -68.9 62.6 -68.9 L 62.6 -68.9 L 62.6 -68.9 Q 64.5 -68.9 67.2 -72 L 67.2 -72 L 67.2 -72 Q 71.1 -76.6 74.1 -84.4 L 74.1 -84.4 L 74.1 -84.4 Q 75.1 -86.8 75.8 -89.2 L 75.8 -89.2 L 75.8 -89.2 Q 75.6 -91.4 74 -92.4 L 74 -92.4 L 74 -92.4 Q 73.4 -92.7 72.3 -92.7 L 72.3 -92.7 L 72.3 -92.7 Q 71.2 -92.7 69.7 -91.9 L 69.7 -91.9 L 69.7 -91.9 Q 68.2 -91.1 66.8 -89.7 L 66.8 -89.7 L 66.8 -89.7 Q 65.5 -88.3 64.2 -86.3 L 64.2 -86.3 L 64.2 -86.3 Q 63 -84.4 62.1 -82.2 L 62.1 -82.2 L 62.1 -82.2 Q 60.2 -77.4 60.2 -72.6 Z M 106.6 -71.2 L 106.6 -71.2 L 106.6 -71.2 Q 101.9 -64.1 96.1 -64.1 L 96.1 -64.1 L 96.1 -64.1 Q 90.9 -64.1 89 -69.7 L 89 -69.7 L 89 -69.7 Q 88.4 -71.6 88.4 -74.4 L 88.4 -74.4 L 88.4 -74.4 Q 88.4 -77.1 89.2 -79.9 L 89.2 -79.9 L 89.2 -79.9 Q 90 -82.7 91.4 -85.2 L 91.4 -85.2 L 91.4 -85.2 Q 92.8 -87.7 94.6 -89.8 L 94.6 -89.8 L 94.6 -89.8 Q 96.5 -91.9 98.6 -93.5 L 98.6 -93.5 L 98.6 -93.5 Q 103 -96.8 107.4 -96.8 L 107.4 -96.8 L 107.4 -96.8 Q 111.8 -96.8 113.7 -92.7 L 113.7 -92.7 L 113.7 -92.7 Q 114 -93.1 114.4 -93.5 L 114.4 -93.5 L 114.4 -93.5 Q 114.7 -93.9 115 -94.3 L 115 -94.3 L 115 -94.3 Q 115.9 -95.1 116.5 -95.1 L 116.5 -95.1 L 116.5 -95.1 Q 117.1 -95.1 117.7 -94.9 L 117.7 -94.9 L 117.7 -94.9 Q 118.4 -94.7 119 -94.3 L 119 -94.3 L 119 -94.3 Q 120.6 -93.4 120.2 -92.6 L 120.2 -92.6 L 120.2 -92.6 Q 118.5 -88.9 117.3 -85.3 L 117.3 -85.3 L 112.7 -70.5 L 112.7 -70.5 Q 107.2 -53.8 98.8 -48.9 L 98.8 -48.9 L 98.8 -48.9 Q 96.6 -47.5 95 -47.3 L 95 -47.3 L 95 -47.3 Q 93.4 -47.1 92.6 -47.3 L 92.6 -47.3 L 92.6 -47.3 Q 91.9 -47.5 91.4 -47.9 L 91.4 -47.9 L 91.4 -47.9 Q 90.1 -48.6 90.1 -49.3 L 90.1 -49.3 L 90.1 -49.3 Q 90.1 -50.4 91.6 -50.6 L 91.6 -50.6 L 91.6 -50.6 Q 93 -50.9 94.6 -51.8 L 94.6 -51.8 L 94.6 -51.8 Q 96.2 -52.7 97.7 -54 L 97.7 -54 L 97.7 -54 Q 103.6 -59.5 106.6 -71.2 Z M 97.2 -82.1 L 97.2 -82.1 L 97.2 -82.1 Q 96.4 -79.8 96 -77.5 L 96 -77.5 L 96 -77.5 Q 95.5 -75.1 95.5 -73.6 L 95.5 -73.6 L 95.5 -73.6 Q 95.5 -72.1 95.6 -71.3 L 95.6 -71.3 L 95.6 -71.3 Q 95.7 -70.5 96 -69.9 L 96 -69.9 L 96 -69.9 Q 96.6 -68.6 97.8 -68.6 L 97.8 -68.6 L 97.8 -68.6 Q 99 -68.6 100.2 -69.5 L 100.2 -69.5 L 100.2 -69.5 Q 101.4 -70.4 102.7 -71.9 L 102.7 -71.9 L 102.7 -71.9 Q 104 -73.4 105.3 -75.4 L 105.3 -75.4 L 105.3 -75.4 Q 106.6 -77.4 107.8 -79.8 L 107.8 -79.8 L 107.8 -79.8 Q 110.5 -84.9 111.5 -89.7 L 111.5 -89.7 L 111.5 -89.7 Q 111.4 -90.5 110.5 -91.4 L 110.5 -91.4 L 110.5 -91.4 Q 108.7 -93.2 107.2 -93.2 L 107.2 -93.2 L 107.2 -93.2 Q 105.8 -93.2 104.4 -92.3 L 104.4 -92.3 L 104.4 -92.3 Q 102.9 -91.4 101.6 -89.9 L 101.6 -89.9 L 101.6 -89.9 Q 100.3 -88.4 99.2 -86.3 L 99.2 -86.3 L 99.2 -86.3 Q 98.1 -84.3 97.2 -82.1 Z M 122.1 -75.4 L 122.1 -75.4 L 122.1 -75.4 Q 122.3 -78.1 123 -80.6 L 123 -80.6 L 123 -80.6 Q 123.8 -83 125.1 -85.4 L 125.1 -85.4 L 125.1 -85.4 Q 126.5 -87.7 128.2 -89.8 L 128.2 -89.8 L 128.2 -89.8 Q 130 -91.9 132 -93.4 L 132 -93.4 L 132 -93.4 Q 136.5 -96.8 141.1 -96.8 L 141.1 -96.8 L 141.1 -96.8 Q 146.4 -96.8 148.2 -92.4 L 148.2 -92.4 L 148.2 -92.4 Q 148.8 -90.9 148.8 -88.8 L 148.8 -88.8 L 148.8 -88.8 Q 148.8 -86.8 148 -85 L 148 -85 L 148 -85 Q 147.3 -83.3 145.9 -81.9 L 145.9 -81.9 L 145.9 -81.9 Q 144.6 -80.4 142.8 -79.3 L 142.8 -79.3 L 142.8 -79.3 Q 141 -78.2 138.8 -77.4 L 138.8 -77.4 L 138.8 -77.4 Q 134.4 -75.9 129.3 -75.8 L 129.3 -75.8 L 129.3 -75.8 Q 129.2 -75.4 129.1 -74.5 L 129.1 -74.5 L 129.1 -74.5 Q 129.1 -73.6 129.3 -72.5 L 129.3 -72.5 L 129.3 -72.5 Q 129.5 -71.4 130.1 -70.6 L 130.1 -70.6 L 130.1 -70.6 Q 131.2 -68.7 133.3 -68.7 L 133.3 -68.7 L 133.3 -68.7 Q 137 -68.7 140.4 -70.9 L 140.4 -70.9 L 140.4 -70.9 Q 141.6 -71.6 142.4 -72.3 L 142.4 -72.3 L 142.4 -72.3 Q 143.1 -73.1 143.7 -73.1 L 143.7 -73.1 L 143.7 -73.1 Q 144.3 -73.1 144.7 -72.4 L 144.7 -72.4 L 144.7 -72.4 Q 145.1 -71.8 145.1 -70.9 L 145.1 -70.9 L 145.1 -70.9 Q 145.1 -69.3 144.2 -68 L 144.2 -68 L 144.2 -68 Q 140.2 -64.1 132.5 -64.1 L 132.5 -64.1 L 132.5 -64.1 Q 127.9 -64.1 125.1 -66.9 L 125.1 -66.9 L 125.1 -66.9 Q 122 -70 122.1 -75.4 Z M 140.4 -92.6 L 140.4 -92.6 L 140.4 -92.6 Q 137.1 -92.6 134.1 -88.1 L 134.1 -88.1 L 134.1 -88.1 Q 131.5 -84.2 130 -78.9 L 130 -78.9 L 130 -78.9 Q 135.2 -79.4 139 -83 L 139 -83 L 139 -83 Q 142.5 -86.4 142.5 -89.5 L 142.5 -89.5 L 142.5 -89.5 Q 142.5 -92.6 140.4 -92.6 Z M 172.8 -77.5 L 172.8 -77.5 L 172.9 -78.4 L 172.9 -78.4 Q 173.2 -87.8 177.6 -96.1 L 177.6 -96.1 L 177.6 -96.1 Q 181.5 -103.6 187.8 -108.4 L 187.8 -108.4 L 187.8 -108.4 Q 193.9 -113 199.6 -113 L 199.6 -113 L 199.6 -113 Q 204 -113 206.5 -110 L 206.5 -110 L 206.5 -110 Q 208.7 -107.4 208.7 -103.5 L 208.7 -103.5 L 208.7 -103.5 Q 208.7 -99 205.3 -94.5 L 205.3 -94.5 L 205.3 -94.5 Q 203.4 -92 201.2 -90.9 L 201.2 -90.9 L 201.2 -90.9 Q 200.2 -90.3 199.3 -90.3 L 199.3 -90.3 L 199.3 -90.3 Q 198.4 -90.3 197.6 -90.7 L 197.6 -90.7 L 197.6 -90.7 Q 196.9 -91 196.4 -91.6 L 196.4 -91.6 L 196.4 -91.6 Q 195.2 -92.8 195.2 -93.8 L 195.2 -93.8 L 195.2 -93.8 Q 195.2 -94.8 195.7 -95.1 L 195.7 -95.1 L 195.7 -95.1 Q 200.8 -98.8 202.7 -102.7 L 202.7 -102.7 L 202.7 -102.7 Q 203.4 -104.2 203.4 -105.7 L 203.4 -105.7 L 203.4 -105.7 Q 203.4 -108.7 200.5 -108.7 L 200.5 -108.7 L 200.5 -108.7 Q 195.9 -108.7 191 -103.5 L 191 -103.5 L 191 -103.5 Q 186.5 -98.8 183.4 -91.5 L 183.4 -91.5 L 183.4 -91.5 Q 180.2 -84.1 180 -77.9 L 180 -77.9 L 180 -77.9 Q 179.7 -71.4 183.1 -69.1 L 183.1 -69.1 L 183.1 -69.1 Q 184.3 -68.3 186 -68.3 L 186 -68.3 L 186 -68.3 Q 187.8 -68.3 189.4 -69.2 L 189.4 -69.2 L 189.4 -69.2 Q 191 -70 192.1 -71.3 L 192.1 -71.3 L 192.1 -71.3 Q 194.5 -74.1 194.6 -77.1 L 194.6 -77.1 L 194.6 -77.1 Q 194.7 -79.4 193 -80.3 L 193 -80.3 L 193 -80.3 Q 192.3 -80.6 191.5 -80.8 L 191.5 -80.8 L 191.5 -80.8 Q 190.7 -81 190.2 -81.3 L 190.2 -81.3 L 190.2 -81.3 Q 189.7 -81.5 189.9 -82.3 L 189.9 -82.3 L 189.9 -82.3 Q 190.2 -83 190.9 -83.8 L 190.9 -83.8 L 190.9 -83.8 Q 192.7 -85.8 194.8 -85.8 L 194.8 -85.8 L 194.8 -85.8 Q 195.5 -85.8 197 -85.5 L 197 -85.5 L 197 -85.5 Q 199.7 -84.9 200.6 -84.9 L 200.6 -84.9 L 200.6 -84.9 Q 201.5 -84.9 202.1 -84.9 L 202.1 -84.9 L 202.1 -84.9 Q 202.6 -85 203.2 -85.1 L 203.2 -85.1 L 203.2 -85.1 Q 204.5 -85.4 205.6 -85.8 L 205.6 -85.8 L 205.6 -85.8 Q 207.5 -86.4 207.5 -85 L 207.5 -85 L 207.5 -85 Q 207.5 -83.5 206.9 -82.2 L 206.9 -82.2 L 206.9 -82.2 Q 206.3 -80.9 205.2 -80 L 205.2 -80 L 205.2 -80 Q 203 -78 199.7 -78.1 L 199.7 -78.1 L 199.7 -78.1 Q 200.1 -76.1 198.3 -72.9 L 198.3 -72.9 L 198.3 -72.9 Q 195.1 -67.1 189.2 -64.9 L 189.2 -64.9 L 189.2 -64.9 Q 187.1 -64.1 184.5 -64.1 L 184.5 -64.1 L 184.5 -64.1 Q 181.9 -64.1 179.7 -65 L 179.7 -65 L 179.7 -65 Q 177.5 -65.9 176 -67.7 L 176 -67.7 L 176 -67.7 Q 172.8 -71.2 172.8 -77.5 Z M 234.1 -72.7 L 234.1 -72.7 L 234.1 -72.7 Q 234.1 -69.9 236.1 -69.9 L 236.1 -69.9 L 236.1 -69.9 Q 237.5 -69.9 238.4 -70.3 L 238.4 -70.3 L 238.4 -70.3 Q 239.4 -70.7 239.7 -70.7 L 239.7 -70.7 L 239.7 -70.7 Q 240.3 -70.7 240.3 -70 L 240.3 -70 L 240.3 -70 Q 240.3 -67.4 237.5 -65.4 L 237.5 -65.4 L 237.5 -65.4 Q 234.5 -63.4 231.5 -64.4 L 231.5 -64.4 L 231.5 -64.4 Q 229.4 -65.1 228.5 -67.5 L 228.5 -67.5 L 228.5 -67.5 Q 228 -68.7 228 -69.7 L 228 -69.7 L 228 -69.7 Q 228 -71.4 228.3 -73.2 L 228.3 -73.2 L 228.3 -73.2 Q 225.4 -67.2 221.1 -65 L 221.1 -65 L 221.1 -65 Q 219.4 -64.1 217.4 -64.1 L 217.4 -64.1 L 217.4 -64.1 Q 215.5 -64.1 214.1 -64.9 L 214.1 -64.9 L 214.1 -64.9 Q 212.6 -65.7 211.6 -67.1 L 211.6 -67.1 L 211.6 -67.1 Q 209.6 -70 209.8 -74.5 L 209.8 -74.5 L 209.8 -74.5 Q 210 -80 213.1 -85.4 L 213.1 -85.4 L 213.1 -85.4 Q 215.9 -90.4 220.3 -93.5 L 220.3 -93.5 L 220.3 -93.5 Q 224.6 -96.8 228.4 -96.8 L 228.4 -96.8 L 228.4 -96.8 Q 232.2 -96.8 234.5 -93.3 L 234.5 -93.3 L 234.5 -93.3 Q 236.6 -96.8 238.3 -96.8 L 238.3 -96.8 L 238.3 -96.8 Q 240.1 -96.8 241 -96.1 L 241 -96.1 L 241 -96.1 Q 242.7 -94.9 242.2 -93.9 L 242.2 -93.9 L 242.2 -93.9 Q 234.4 -77.9 234.1 -73.9 L 234.1 -73.9 L 234.1 -73.9 Q 234.1 -73.4 234.1 -72.7 Z M 216.7 -72.6 L 216.7 -72.6 L 216.7 -72.6 Q 216.7 -68.9 219.1 -68.9 L 219.1 -68.9 L 219.1 -68.9 Q 221 -68.9 223.7 -72 L 223.7 -72 L 223.7 -72 Q 227.6 -76.6 230.6 -84.4 L 230.6 -84.4 L 230.6 -84.4 Q 231.6 -86.8 232.3 -89.2 L 232.3 -89.2 L 232.3 -89.2 Q 232.1 -91.4 230.5 -92.4 L 230.5 -92.4 L 230.5 -92.4 Q 229.9 -92.7 228.8 -92.7 L 228.8 -92.7 L 228.8 -92.7 Q 227.7 -92.7 226.2 -91.9 L 226.2 -91.9 L 226.2 -91.9 Q 224.7 -91.1 223.3 -89.7 L 223.3 -89.7 L 223.3 -89.7 Q 222 -88.3 220.7 -86.3 L 220.7 -86.3 L 220.7 -86.3 Q 219.5 -84.4 218.6 -82.2 L 218.6 -82.2 L 218.6 -82.2 Q 216.7 -77.4 216.7 -72.6 Z M 246.3 -65.7 L 246.3 -65.7 L 246.3 -65.7 Q 245.5 -66.5 245.1 -67.7 L 245.1 -67.7 L 245.1 -67.7 Q 244.6 -69 244.6 -70.7 L 244.6 -70.7 L 244.6 -70.7 Q 244.6 -72.4 245.3 -75.2 L 245.3 -75.2 L 245.3 -75.2 Q 246.1 -78 247.3 -81.6 L 247.3 -81.6 L 249.9 -89.4 L 249.9 -89.4 Q 255.5 -105.6 256.4 -114.5 L 256.4 -114.5 L 256.4 -114.5 Q 256.7 -117.1 259 -117.1 L 259 -117.1 L 259 -117.1 Q 260.4 -117.1 261.3 -116.4 L 261.3 -116.4 L 261.3 -116.4 Q 263.1 -115 263.1 -113.4 L 263.1 -113.4 L 263.1 -113.4 Q 263 -111.7 262.5 -109.2 L 262.5 -109.2 L 262.5 -109.2 Q 262 -106.8 261.1 -104 L 261.1 -104 L 261.1 -104 Q 260.3 -101.1 259.2 -97.9 L 259.2 -97.9 L 254.9 -85.2 L 254.9 -85.2 Q 251.1 -74.4 251.1 -71.3 L 251.1 -71.3 L 251.1 -71.3 Q 251.1 -69.6 252.5 -69.6 L 252.5 -69.6 L 252.5 -69.6 Q 253.8 -69.6 254.9 -70.1 L 254.9 -70.1 L 254.9 -70.1 Q 256 -70.7 256.3 -70.7 L 256.3 -70.7 L 256.3 -70.7 Q 257 -70.7 257 -70 L 257 -70 L 257 -70 Q 257 -67.3 254.1 -65.4 L 254.1 -65.4 L 254.1 -65.4 Q 252.2 -64.1 250.6 -64.1 L 250.6 -64.1 L 250.6 -64.1 Q 249 -64.1 248.1 -64.5 L 248.1 -64.5 L 248.1 -64.5 Q 247.1 -64.9 246.3 -65.7 Z M 264.2 -65.7 L 264.2 -65.7 L 264.2 -65.7 Q 263.4 -66.5 262.9 -67.7 L 262.9 -67.7 L 262.9 -67.7 Q 262.5 -69 262.5 -70.7 L 262.5 -70.7 L 262.5 -70.7 Q 262.5 -72.4 263.2 -75.2 L 263.2 -75.2 L 263.2 -75.2 Q 264 -78 265.2 -81.6 L 265.2 -81.6 L 267.8 -89.4 L 267.8 -89.4 Q 273.4 -105.6 274.3 -114.5 L 274.3 -114.5 L 274.3 -114.5 Q 274.5 -117.1 276.8 -117.1 L 276.8 -117.1 L 276.8 -117.1 Q 278.3 -117.1 279.2 -116.4 L 279.2 -116.4 L 279.2 -116.4 Q 281 -115 281 -113.4 L 281 -113.4 L 281 -113.4 Q 280.9 -111.7 280.4 -109.2 L 280.4 -109.2 L 280.4 -109.2 Q 279.8 -106.8 279 -104 L 279 -104 L 279 -104 Q 278.1 -101.1 277 -97.9 L 277 -97.9 L 272.7 -85.2 L 272.7 -85.2 Q 269 -74.4 269 -71.3 L 269 -71.3 L 269 -71.3 Q 269 -69.6 270.4 -69.6 L 270.4 -69.6 L 270.4 -69.6 Q 271.7 -69.6 272.8 -70.1 L 272.8 -70.1 L 272.8 -70.1 Q 273.9 -70.7 274.2 -70.7 L 274.2 -70.7 L 274.2 -70.7 Q 274.8 -70.7 274.8 -70 L 274.8 -70 L 274.8 -70 Q 274.8 -67.3 272 -65.4 L 272 -65.4 L 272 -65.4 Q 270.1 -64.1 268.5 -64.1 L 268.5 -64.1 L 268.5 -64.1 Q 266.9 -64.1 266 -64.5 L 266 -64.5 L 266 -64.5 Q 265 -64.9 264.2 -65.7 Z M 280.7 -75.4 L 280.7 -75.4 L 280.7 -75.4 Q 280.8 -78.1 281.6 -80.6 L 281.6 -80.6 L 281.6 -80.6 Q 282.4 -83 283.7 -85.4 L 283.7 -85.4 L 283.7 -85.4 Q 285 -87.7 286.7 -89.8 L 286.7 -89.8 L 286.7 -89.8 Q 288.5 -91.9 290.6 -93.4 L 290.6 -93.4 L 290.6 -93.4 Q 295 -96.8 299.6 -96.8 L 299.6 -96.8 L 299.6 -96.8 Q 305 -96.8 306.7 -92.4 L 306.7 -92.4 L 306.7 -92.4 Q 307.4 -90.9 307.3 -88.8 L 307.3 -88.8 L 307.3 -88.8 Q 307.3 -86.8 306.5 -85 L 306.5 -85 L 306.5 -85 Q 305.8 -83.3 304.5 -81.9 L 304.5 -81.9 L 304.5 -81.9 Q 303.1 -80.4 301.3 -79.3 L 301.3 -79.3 L 301.3 -79.3 Q 299.5 -78.2 297.3 -77.4 L 297.3 -77.4 L 297.3 -77.4 Q 292.9 -75.9 287.8 -75.8 L 287.8 -75.8 L 287.8 -75.8 Q 287.7 -75.4 287.7 -74.5 L 287.7 -74.5 L 287.7 -74.5 Q 287.6 -73.6 287.9 -72.5 L 287.9 -72.5 L 287.9 -72.5 Q 288.1 -71.4 288.6 -70.6 L 288.6 -70.6 L 288.6 -70.6 Q 289.7 -68.7 291.9 -68.7 L 291.9 -68.7 L 291.9 -68.7 Q 295.5 -68.7 298.9 -70.9 L 298.9 -70.9 L 298.9 -70.9 Q 300.1 -71.6 300.9 -72.3 L 300.9 -72.3 L 300.9 -72.3 Q 301.7 -73.1 302.2 -73.1 L 302.2 -73.1 L 302.2 -73.1 Q 302.8 -73.1 303.2 -72.4 L 303.2 -72.4 L 303.2 -72.4 Q 303.6 -71.8 303.6 -70.9 L 303.6 -70.9 L 303.6 -70.9 Q 303.6 -69.3 302.7 -68 L 302.7 -68 L 302.7 -68 Q 298.8 -64.1 291 -64.1 L 291 -64.1 L 291 -64.1 Q 286.4 -64.1 283.6 -66.9 L 283.6 -66.9 L 283.6 -66.9 Q 280.5 -70 280.7 -75.4 Z M 298.9 -92.6 L 298.9 -92.6 L 298.9 -92.6 Q 295.6 -92.6 292.6 -88.1 L 292.6 -88.1 L 292.6 -88.1 Q 290 -84.2 288.5 -78.9 L 288.5 -78.9 L 288.5 -78.9 Q 293.7 -79.4 297.5 -83 L 297.5 -83 L 297.5 -83 Q 301.1 -86.4 301.1 -89.5 L 301.1 -89.5 L 301.1 -89.5 Q 301.1 -92.6 298.9 -92.6 Z M 310.8 -65.2 L 310.8 -65.2 L 310.8 -65.2 Q 310.2 -65.6 309.8 -66.2 L 309.8 -66.2 L 309.8 -66.2 Q 309.5 -66.8 309.4 -67.2 L 309.4 -67.2 L 309.4 -67.2 Q 309.4 -67.6 309.6 -68.2 L 309.6 -68.2 L 309.6 -68.2 Q 309.8 -68.9 310.1 -69.7 L 310.1 -69.7 L 310.1 -69.7 Q 316.5 -85.4 316.5 -90.8 L 316.5 -90.8 L 316.5 -90.8 Q 316.4 -92.3 315.5 -92.9 L 315.5 -92.9 L 314.9 -93.4 L 314.9 -93.4 Q 314.6 -93.6 314.6 -94.1 L 314.6 -94.1 L 314.6 -94.1 Q 314.5 -94.7 315 -95.2 L 315 -95.2 L 315 -95.2 Q 315.4 -95.7 316 -96 L 316 -96 L 316 -96 Q 317.4 -96.8 318.8 -96.8 L 318.8 -96.8 L 318.8 -96.8 Q 320.2 -96.8 321 -96.4 L 321 -96.4 L 321 -96.4 Q 321.8 -96.1 322.4 -95.6 L 322.4 -95.6 L 322.4 -95.6 Q 323.5 -94.5 323.6 -93.2 L 323.6 -93.2 L 323.6 -93.2 Q 323.6 -92 323.3 -90.7 L 323.3 -90.7 L 323.3 -90.7 Q 323 -89.4 322.6 -88.2 L 322.6 -88.2 L 322.6 -88.2 Q 322.2 -86.9 321.8 -85.8 L 321.8 -85.8 L 321.8 -85.8 Q 321.4 -84.7 321.2 -84.2 L 321.2 -84.2 L 321.2 -84.2 Q 321 -83.1 321 -82.8 L 321 -82.8 L 321 -82.8 Q 321.8 -83.5 322 -84.1 L 322 -84.1 L 323.2 -86.4 L 323.2 -86.4 Q 327.2 -93.7 331.1 -96.1 L 331.1 -96.1 L 331.1 -96.1 Q 332.2 -96.8 333.8 -96.8 L 333.8 -96.8 L 333.8 -96.8 Q 335.4 -96.8 336.4 -95.6 L 336.4 -95.6 L 336.4 -95.6 Q 337.3 -94.5 337.4 -93.2 L 337.4 -93.2 L 337.4 -93.2 Q 337.4 -91.9 337.2 -91 L 337.2 -91 L 337.2 -91 Q 337 -90.1 336.5 -89.3 L 336.5 -89.3 L 336.5 -89.3 Q 335.5 -87.5 334 -87.5 L 334 -87.5 L 334 -87.5 Q 333.6 -87.5 333.2 -87.8 L 333.2 -87.8 L 332.5 -88.4 L 332.5 -88.4 Q 331.5 -89.3 330.6 -89.3 L 330.6 -89.3 L 330.6 -89.3 Q 329.6 -89.3 328.2 -88.1 L 328.2 -88.1 L 328.2 -88.1 Q 326.9 -86.8 325.4 -84.9 L 325.4 -84.9 L 325.4 -84.9 Q 320.5 -78.3 317.4 -70.2 L 317.4 -70.2 L 316 -66.6 L 316 -66.6 Q 315.5 -65.3 315 -64.7 L 315 -64.7 L 315 -64.7 Q 314.6 -64.1 313.8 -64.1 L 313.8 -64.1 L 313.8 -64.1 Q 313 -64.1 312.2 -64.4 L 312.2 -64.4 L 312.2 -64.4 Q 311.5 -64.7 310.8 -65.2 Z M 336.8 -67.4 L 336.8 -67.4 L 336.8 -67.4 Q 336.4 -68.5 336.4 -69.8 L 336.4 -69.8 L 336.4 -69.8 Q 336.4 -71.1 336.8 -72.8 L 336.8 -72.8 L 336.8 -72.8 Q 337.3 -74.4 338 -76.2 L 338 -76.2 L 338 -76.2 Q 338.7 -78 339.6 -79.9 L 339.6 -79.9 L 341.3 -83.6 L 341.3 -83.6 Q 344.5 -90.8 343.7 -92.2 L 343.7 -92.2 L 343.7 -92.2 Q 343.3 -92.8 342.3 -93.4 L 342.3 -93.4 L 342.3 -93.4 Q 341.9 -93.6 341.9 -94.1 L 341.9 -94.1 L 341.9 -94.1 Q 341.9 -94.7 342.3 -95.2 L 342.3 -95.2 L 342.3 -95.2 Q 342.8 -95.7 343.5 -96 L 343.5 -96 L 343.5 -96 Q 345 -96.8 346.6 -96.8 L 346.6 -96.8 L 346.6 -96.8 Q 348.1 -96.8 348.9 -96.4 L 348.9 -96.4 L 348.9 -96.4 Q 349.7 -96.1 350.2 -95.6 L 350.2 -95.6 L 350.2 -95.6 Q 351.2 -94.6 351.2 -93.3 L 351.2 -93.3 L 351.2 -93.3 Q 351.2 -92.1 350.8 -90.5 L 350.8 -90.5 L 350.8 -90.5 Q 350.4 -89 349.8 -87.2 L 349.8 -87.2 L 349.8 -87.2 Q 349.1 -85.4 348.3 -83.4 L 348.3 -83.4 L 348.3 -83.4 Q 346.2 -78.4 345.4 -76.7 L 345.4 -76.7 L 344.3 -74.3 L 344.3 -74.3 Q 343.3 -72.2 343.3 -71.3 L 343.3 -71.3 L 343.3 -71.3 Q 343.3 -70.4 343.6 -70.1 L 343.6 -70.1 L 343.6 -70.1 Q 343.9 -69.7 344.6 -69.7 L 344.6 -69.7 L 344.6 -69.7 Q 345.3 -69.7 346.2 -70.3 L 346.2 -70.3 L 346.2 -70.3 Q 347.1 -70.8 348.1 -71.8 L 348.1 -71.8 L 348.1 -71.8 Q 349.2 -72.7 350.3 -73.9 L 350.3 -73.9 L 350.3 -73.9 Q 351.4 -75.2 352.5 -76.5 L 352.5 -76.5 L 352.5 -76.5 Q 355.2 -79.9 356.6 -82.4 L 356.6 -82.4 L 356.6 -82.4 Q 363.3 -94.9 363.7 -95.4 L 363.7 -95.4 L 363.7 -95.4 Q 364.8 -96.8 365.8 -96.8 L 365.8 -96.8 L 365.8 -96.8 Q 366.9 -96.8 367.6 -96.5 L 367.6 -96.5 L 367.6 -96.5 Q 368.4 -96.3 369 -95.9 L 369 -95.9 L 369 -95.9 Q 370.2 -94.9 369.7 -93.8 L 369.7 -93.8 L 369.7 -93.8 Q 369.3 -92.7 368.6 -90.7 L 368.6 -90.7 L 368.6 -90.7 Q 362.6 -73.5 360.9 -69.3 L 360.9 -69.3 L 360.9 -69.3 Q 359.1 -65 357.8 -62.4 L 357.8 -62.4 L 357.8 -62.4 Q 356.5 -59.9 354.7 -57.2 L 354.7 -57.2 L 354.7 -57.2 Q 353 -54.6 351 -52.4 L 351 -52.4 L 351 -52.4 Q 346.4 -47.6 342.4 -47.2 L 342.4 -47.2 L 342.4 -47.2 Q 340.9 -47.1 340 -47.7 L 340 -47.7 L 340 -47.7 Q 338.4 -48.6 338.4 -49.4 L 338.4 -49.4 L 338.4 -49.4 Q 338.4 -50.3 339.8 -50.6 L 339.8 -50.6 L 339.8 -50.6 Q 341.2 -50.9 342.7 -51.9 L 342.7 -51.9 L 342.7 -51.9 Q 344.3 -52.9 345.7 -54.2 L 345.7 -54.2 L 345.7 -54.2 Q 349.8 -58.2 352.1 -62.8 L 352.1 -62.8 L 352.1 -62.8 Q 354 -66.9 355.2 -70.5 L 355.2 -70.5 L 357.6 -77.9 L 357.6 -77.9 Q 356.7 -76.8 355.6 -75.4 L 355.6 -75.4 L 353.4 -72.4 L 353.4 -72.4 Q 350.5 -68.6 348.5 -67.1 L 348.5 -67.1 L 348.5 -67.1 Q 344.8 -64.1 341.9 -64.1 L 341.9 -64.1 L 341.9 -64.1 Q 338 -64.1 336.8 -67.4 Z" fill="url(#editing-sticker-gradient)" stroke="#000000" stroke-width="2.5"></path></g></g><style>text {
  font-size: 64px;
  font-family: Arial Black;
  dominant-baseline: central;
  text-anchor: middle;
}</style></svg>